<svg width="11px" height="11px" viewBox="0 0 11 11" version="1.1" xmlns="http://www.w3.org/2000/svg" xmlns:xlink="http://www.w3.org/1999/xlink">
    <!-- Generator: Sketch 47.1 (45422) - http://www.bohemiancoding.com/sketch -->
    <desc>Created with Sketch.</desc>
    <defs></defs>
    <g id="Page-1" stroke="none" stroke-width="1" fill="none" fill-rule="evenodd">
        <g id="-Interim-profile-1.0-B" transform="translate(-20.000000, -141.000000)" fill="#343F53">
            <g id="Prof-summary-block" transform="translate(20.000000, 139.000000)">
                <g id="Verified-by-Psychology-Today">
                    <path d="M5.50153842,2.46153846 C2.72233844,2.46153846 0.461538462,4.72233844 0.461538462,7.50153842 C0.461538462,10.2807384 2.72233844,12.5415384 5.50153842,12.5415384 C8.2807384,12.5415384 10.5415384,10.2807384 10.5415384,7.50153842 C10.5415384,4.72233844 8.2807384,2.46153846 5.50153842,2.46153846 L5.50153842,2.46153846 Z M5.50153842,11.2043955 C3.45961844,11.2043955 1.79868131,9.54345841 1.79868131,7.50153842 C1.79868131,5.45961844 3.45961844,3.79868131 5.50153842,3.79868131 C7.54345841,3.79868131 9.20439554,5.45961844 9.20439554,7.50153842 C9.20439554,9.54345841 7.54345841,11.2043955 5.50153842,11.2043955 L5.50153842,11.2043955 Z M7.99479555,6.67333272 L4.90414414,9.76357269 C4.85189271,9.81623555 4.76549271,9.81623555 4.71282986,9.76357269 L3.83566415,8.88599556 C3.78300129,8.8333327 3.69660129,8.74734413 3.64434987,8.69468127 L2.9996413,8.0499727 C2.94697844,7.99772128 2.94697844,7.91173271 2.9996413,7.85865842 L3.87762986,6.98108128 C3.93029272,6.92841843 4.01628129,6.92841843 4.06853272,6.98108128 L4.71324129,7.62578985 C4.76590414,7.67804128 4.85189271,7.67804128 4.90455557,7.62578985 L6.91849841,5.61184701 C6.97074984,5.55918415 7.05714984,5.55877272 7.11063555,5.61102415 L7.99356126,6.48242986 C8.04704698,6.53509272 8.04704698,6.62066986 7.99479555,6.67333272 L7.99479555,6.67333272 Z" id="Shape"></path>
                </g>
            </g>
        </g>
    </g>
</svg>